<svg xmlns="http://www.w3.org/2000/svg" viewBox="0 0 300 300">
  <defs>
    <linearGradient id="bg-fire-cavern" x1="0" y1="0" x2="0" y2="1">
      <stop offset="0" stop-color="#3a0a02"/>
      <stop offset="55%" stop-color="#7a1d05"/>
      <stop offset="100%" stop-color="#1a0300"/>
    </linearGradient>
  </defs>
  <rect width="300" height="300" fill="url(#bg-fire-cavern)"/>
  
      <circle cx="150" cy="150" r="90" fill="#ff6a1a" opacity="0.15"/>
      <path d="M150 60 C120 110 110 140 130 170 C120 165 108 150 110 130 C90 160 95 200 130 220 C160 236 200 220 205 185 C208 160 195 140 180 130 C188 150 182 165 170 172 C178 145 165 110 150 60 Z" fill="#ff7a1f"/>
      <path d="M150 105 C138 130 133 148 145 165 C150 172 165 168 170 152 C172 140 165 128 158 122 C162 135 156 145 150 105 Z" fill="#ffd23f"/>
      <ellipse cx="150" cy="232" rx="70" ry="14" fill="#180200" opacity="0.6"/>
    
  <rect x="0" y="248" width="300" height="52" fill="rgba(0,0,0,0.55)"/>
  <text x="150" y="272" font-family="Georgia, serif" font-size="21" fill="#fff" text-anchor="middle" font-weight="bold">Fire Cavern</text>
  <text x="150" y="291" font-family="Georgia, serif" font-size="11" fill="#d9c47a" text-anchor="middle" letter-spacing="2">BOOSTER PACK</text>
  <rect x="4" y="4" width="292" height="292" fill="none" stroke="#d9c47a" stroke-width="3"/>
</svg>